<svg width="20" height="20" viewBox="0 0 20 20" fill="none" xmlns="http://www.w3.org/2000/svg">
<path fill-rule="evenodd" clip-rule="evenodd" d="M9.99996 18.3334C14.6023 18.3334 18.3333 14.6024 18.3333 10C18.3333 5.39765 14.6023 1.66669 9.99996 1.66669C5.39759 1.66669 1.66663 5.39765 1.66663 10C1.66663 14.6024 5.39759 18.3334 9.99996 18.3334ZM9.05107 8.00295V14.1667H10.7031V8.00295H9.05107ZM9.19918 5.79836C9.03587 5.95787 8.95422 6.16104 8.95422 6.4079C8.95422 6.65855 9.03777 6.86363 9.20487 7.02313C9.37577 7.18264 9.59984 7.26239 9.87707 7.26239C10.1543 7.26239 10.3765 7.18264 10.5436 7.02313C10.7145 6.86363 10.7999 6.65855 10.7999 6.4079C10.7999 6.16104 10.7164 5.95787 10.5493 5.79836C10.3822 5.63885 10.1581 5.5591 9.87707 5.5591C9.59224 5.5591 9.36628 5.63885 9.19918 5.79836Z" fill="#3B596A"/>
</svg>
