<svg width="110" height="110" viewBox="0 0 110 110" fill="none" xmlns="http://www.w3.org/2000/svg">
<path fill-rule="evenodd" clip-rule="evenodd" d="M54.5 45C51.5177 45 49.1 47.4177 49.1 50.4V52.9011C47.8728 52.9073 47.1837 52.9489 46.638 53.227C46.0735 53.5146 45.6146 53.9735 45.327 54.538C45 55.1797 45 56.0198 45 57.7V61.1C45 62.7801 45 63.6202 45.327 64.2619C45.6146 64.8264 46.0735 65.2854 46.638 65.573C47.2798 65.9 48.1198 65.9 49.8 65.9H59.2C60.8802 65.9 61.7202 65.9 62.362 65.573C62.9265 65.2854 63.3854 64.8264 63.673 64.2619C64 63.6202 64 62.7801 64 61.1V57.7C64 56.0198 64 55.1797 63.673 54.538C63.3854 53.9735 62.9265 53.5146 62.362 53.227C61.8163 52.9489 61.1271 52.9073 59.9 52.9011V50.4C59.9 47.4177 57.4823 45 54.5 45ZM58.1 52.9V50.4C58.1 48.4118 56.4882 46.8 54.5 46.8C52.5118 46.8 50.9 48.4118 50.9 50.4V52.9H58.1ZM55.5 60.1324C56.0978 59.7866 56.5 59.1403 56.5 58.4C56.5 57.2954 55.6046 56.4 54.5 56.4C53.3954 56.4 52.5 57.2954 52.5 58.4C52.5 59.1403 52.9022 59.7866 53.5 60.1324V61.9C53.5 62.4523 53.9477 62.9 54.5 62.9C55.0523 62.9 55.5 62.4523 55.5 61.9V60.1324Z" fill="#D8D7DF"/>
</svg>
