<svg width="24" height="24" viewBox="0 0 24 24" fill="none" xmlns="http://www.w3.org/2000/svg">
<path fill-rule="evenodd" clip-rule="evenodd" d="M12 1.09998C9.01766 1.09998 6.6 3.51764 6.6 6.49998V9.00107C5.37285 9.0073 4.68373 9.04891 4.13803 9.32696C3.57354 9.61458 3.1146 10.0735 2.82698 10.638C2.5 11.2797 2.5 12.1198 2.5 13.8V17.2C2.5 18.8801 2.5 19.7202 2.82698 20.3619C3.1146 20.9264 3.57354 21.3854 4.13803 21.673C4.77976 22 5.61984 22 7.3 22H16.7C18.3802 22 19.2202 22 19.862 21.673C20.4265 21.3854 20.8854 20.9264 21.173 20.3619C21.5 19.7202 21.5 18.8801 21.5 17.2V13.8C21.5 12.1198 21.5 11.2797 21.173 10.638C20.8854 10.0735 20.4265 9.61458 19.862 9.32696C19.3163 9.04891 18.6271 9.0073 17.4 9.00107V6.49998C17.4 3.51764 14.9823 1.09998 12 1.09998ZM15.6 8.99998V6.49998C15.6 4.51175 13.9882 2.89998 12 2.89998C10.0118 2.89998 8.4 4.51175 8.4 6.49998V8.99998H15.6ZM13 16.2324C13.5978 15.8866 14 15.2403 14 14.5C14 13.3954 13.1046 12.5 12 12.5C10.8954 12.5 10 13.3954 10 14.5C10 15.2403 10.4022 15.8866 11 16.2324V18C11 18.5523 11.4477 19 12 19C12.5523 19 13 18.5523 13 18V16.2324Z" fill="#D8D7DF"/>
</svg>
