<svg width="24" height="24" viewBox="0 0 24 24" fill="none" xmlns="http://www.w3.org/2000/svg">
<path fill-rule="evenodd" clip-rule="evenodd" d="M3.99998 2.09998C3.50292 2.09998 3.09998 2.50292 3.09998 2.99998C3.09998 3.49703 3.50292 3.89998 3.99998 3.89998H4.63504C4.85655 6.71991 6.09141 8.86554 7.30858 10.3261C7.90628 11.0434 8.50369 11.6008 8.9844 12C8.50369 12.3991 7.90628 12.9566 7.30858 13.6738C6.09141 15.1344 4.85655 17.28 4.63504 20.1H3.99998C3.50292 20.1 3.09998 20.5029 3.09998 21C3.09998 21.497 3.50292 21.9 3.99998 21.9H5.49998H18.5H20C20.497 21.9 20.9 21.497 20.9 21C20.9 20.5029 20.497 20.1 20 20.1H19.3649C19.1434 17.28 17.9085 15.1344 16.6914 13.6738C16.0937 12.9566 15.4963 12.3991 15.0155 12C15.4963 11.6008 16.0937 11.0434 16.6914 10.3261C17.9085 8.86554 19.1434 6.71991 19.3649 3.89998H20C20.497 3.89998 20.9 3.49703 20.9 2.99998C20.9 2.50292 20.497 2.09998 20 2.09998H18.5H5.49998H3.99998ZM7.29365 6.99998C6.87079 6.106 6.55193 5.07312 6.4418 3.89998H17.5581C17.448 5.07312 17.1292 6.106 16.7063 6.99998H7.29365ZM10.6283 13C10.5296 13.0717 10.4123 13.1601 10.281 13.2653C9.8491 13.6107 9.27006 14.1317 8.69137 14.8261C7.66551 16.0572 6.65661 17.8118 6.4418 20.1H17.5581C17.3433 17.8118 16.3344 16.0572 15.3086 14.8261C14.7299 14.1317 14.1509 13.6107 13.719 13.2653C13.5876 13.1601 13.4704 13.0717 13.3716 13H10.6283Z" fill="#016BA7"/>
</svg>
