<svg width="24" height="24" viewBox="0 0 24 24" fill="none" xmlns="http://www.w3.org/2000/svg">
<path fill-rule="evenodd" clip-rule="evenodd" d="M11.3545 1.52792C8.88222 3.50737 6.66129 4.75306 3.5 4.96704C2.94898 5.00434 2.49881 5.45826 2.51149 6.01039C2.85665 21.0336 10.8894 22.8201 11.8966 22.9852C11.9657 22.9965 12.0344 22.9965 12.1034 22.9852C13.1107 22.8201 21.1434 21.0336 21.4886 6.0104C21.5013 5.45826 21.0511 5.00434 20.5001 4.96704C17.3388 4.75306 15.1178 3.50737 12.6456 1.52792C12.2687 1.22621 11.7313 1.22621 11.3545 1.52792ZM16.6364 10.1364C16.9879 9.78493 16.9879 9.21508 16.6364 8.86361C16.285 8.51214 15.7151 8.51214 15.3636 8.86361L11 13.2272L9.13643 11.3636C8.78496 11.0121 8.21511 11.0121 7.86364 11.3636C7.51216 11.7151 7.51216 12.2849 7.86364 12.6364L10.3636 15.1364C10.7151 15.4879 11.285 15.4879 11.6364 15.1364L16.6364 10.1364Z" fill="#016BA7"/>
</svg>
