<svg width="24" height="24" viewBox="0 0 24 24" fill="none" xmlns="http://www.w3.org/2000/svg">
<path fill-rule="evenodd" clip-rule="evenodd" d="M12 1.09998C14.9823 1.09998 17.4 3.51764 17.4 6.49998V9.50107C18.6271 9.5073 19.3163 9.54891 19.862 9.82696C20.4265 10.1146 20.8854 10.5735 21.173 11.138C21.5 11.7797 21.5 12.6198 21.5 14.3V17.7C21.5 19.3801 21.5 20.2202 21.173 20.8619C20.8854 21.4264 20.4265 21.8854 19.862 22.173C19.2202 22.5 18.3802 22.5 16.7 22.5H7.3C5.61984 22.5 4.77976 22.5 4.13803 22.173C3.57354 21.8854 3.1146 21.4264 2.82698 20.8619C2.5 20.2202 2.5 19.3801 2.5 17.7V14.3C2.5 12.6198 2.5 11.7797 2.82698 11.138C3.1146 10.5735 3.57354 10.1146 4.13803 9.82696C4.77976 9.49998 5.61984 9.49998 7.3 9.49998H15.6V6.49998C15.6 4.51175 13.9882 2.89998 12 2.89998C10.0118 2.89998 8.4 4.51175 8.4 6.49998V6.59998C8.4 7.09703 7.99706 7.49998 7.5 7.49998C7.00294 7.49998 6.6 7.09703 6.6 6.59998V6.49998C6.6 3.51764 9.01766 1.09998 12 1.09998ZM13 16.7324C13.5978 16.3866 14 15.7403 14 15C14 13.8954 13.1046 13 12 13C10.8954 13 10 13.8954 10 15C10 15.7403 10.4022 16.3866 11 16.7324V18.5C11 19.0523 11.4477 19.5 12 19.5C12.5523 19.5 13 19.0523 13 18.5V16.7324Z" fill="#3B596A"/>
</svg>
