<svg width="110" height="110" viewBox="0 0 110 110" fill="none" xmlns="http://www.w3.org/2000/svg">
<path fill-rule="evenodd" clip-rule="evenodd" d="M54.5 44C57.4823 44 59.9 46.4177 59.9 49.4V52.4011C61.1271 52.4073 61.8163 52.4489 62.362 52.727C62.9265 53.0146 63.3854 53.4735 63.673 54.038C64 54.6797 64 55.5198 64 57.2V60.6C64 62.2801 64 63.1202 63.673 63.7619C63.3854 64.3264 62.9265 64.7854 62.362 65.073C61.7202 65.4 60.8802 65.4 59.2 65.4H49.8C48.1198 65.4 47.2798 65.4 46.638 65.073C46.0735 64.7854 45.6146 64.3264 45.327 63.7619C45 63.1202 45 62.2801 45 60.6V57.2C45 55.5198 45 54.6797 45.327 54.038C45.6146 53.4735 46.0735 53.0146 46.638 52.727C47.2798 52.4 48.1198 52.4 49.8 52.4H58.1V49.4C58.1 47.4118 56.4882 45.8 54.5 45.8C52.5118 45.8 50.9 47.4118 50.9 49.4V49.5C50.9 49.997 50.4971 50.4 50 50.4C49.5029 50.4 49.1 49.997 49.1 49.5V49.4C49.1 46.4177 51.5177 44 54.5 44ZM55.5 59.6324C56.0978 59.2866 56.5 58.6403 56.5 57.9C56.5 56.7954 55.6046 55.9 54.5 55.9C53.3954 55.9 52.5 56.7954 52.5 57.9C52.5 58.6403 52.9022 59.2866 53.5 59.6324V61.4C53.5 61.9523 53.9477 62.4 54.5 62.4C55.0523 62.4 55.5 61.9523 55.5 61.4V59.6324Z" fill="#3B596A"/>
</svg>
